<svg width="22" height="22" viewBox="0 0 22 22" fill="none" xmlns="http://www.w3.org/2000/svg">
<path fill-rule="evenodd" clip-rule="evenodd" d="M22 11C22 17.0751 17.0751 22 11 22C4.92487 22 0 17.0751 0 11C0 4.92487 4.92487 0 11 0C17.0751 0 22 4.92487 22 11ZM13.194 6.556C14.6944 7.07283 15.7917 7.84757 15.5761 9.28874C15.42 10.3437 14.8352 10.8545 14.0587 11.0335C15.1249 11.5886 15.6674 12.4398 15.1506 13.9155C14.5092 15.7483 12.9855 15.903 10.9591 15.5195L10.4673 17.4903L9.27898 17.1942L9.76433 15.2497C9.45633 15.1732 9.14156 15.092 8.81732 15.004L8.33027 16.9576L7.14329 16.6614L7.63507 14.6869C7.52412 14.6584 7.41247 14.6293 7.30003 14.6C7.1312 14.556 6.96059 14.5115 6.7879 14.4682L5.24147 14.0827L5.83141 12.7224C5.83141 12.7224 6.70701 12.9553 6.69516 12.938C7.03159 13.0213 7.18086 12.802 7.23975 12.6558L8.01686 9.54022C8.04602 9.54722 8.07457 9.55438 8.10212 9.56129C8.11582 9.56472 8.12927 9.5681 8.14242 9.57135C8.09504 9.5524 8.05206 9.54022 8.01889 9.53175L8.57329 7.30772C8.58784 7.05523 8.50086 6.73674 8.01956 6.61659C8.03818 6.60406 7.15649 6.402 7.15649 6.402L7.47261 5.13277L9.11144 5.54197L9.11009 5.54806C9.35649 5.60932 9.61033 5.66754 9.86892 5.72643L10.356 3.77486L11.5436 4.07102L11.0664 5.98434C11.3852 6.05711 11.7061 6.13055 12.0185 6.2084L12.4923 4.3076L13.6807 4.60375L13.194 6.556Z" fill="#F0901C"/>
<path fill-rule="evenodd" clip-rule="evenodd" d="M13.1642 9.1238C12.8484 10.4026 10.899 9.75287 10.2666 9.59358L10.8243 7.33334C11.4567 7.49262 13.4932 7.7899 13.1642 9.1238Z" fill="#F0901C"/>
<path fill-rule="evenodd" clip-rule="evenodd" d="M12.7953 13.083C12.431 14.5207 9.96613 13.7435 9.16699 13.5486L9.81436 11C10.6135 11.1959 13.1761 11.5837 12.7953 13.083Z" fill="#F0901C"/>
</svg>
