<svg width="40" height="40" viewBox="0 0 40 40" fill="none" xmlns="http://www.w3.org/2000/svg">
<rect opacity="0.1" width="40" height="40" rx="20" fill="#F0901C"/>
<path fill-rule="evenodd" clip-rule="evenodd" d="M27.9582 16.8444C28.2911 14.5327 26.5967 13.29 24.2799 12.461L25.0314 9.32957L23.1964 8.85453L22.4648 11.9035C21.9824 11.7786 21.4869 11.6608 20.9946 11.5441L21.7315 8.47504L19.8976 8L19.1455 11.1304C18.7462 11.0359 18.3542 10.9425 17.9737 10.8443L17.9758 10.8345L15.4452 10.1781L14.9571 12.214C14.9571 12.214 16.3185 12.5381 16.2898 12.5582C17.033 12.7509 17.1673 13.2618 17.1448 13.6668L16.2888 17.2342C16.34 17.2478 16.4063 17.2673 16.4795 17.2977L16.4173 17.2816C16.3748 17.2705 16.3307 17.259 16.2856 17.2478L15.0856 22.2452C14.9947 22.4797 14.7642 22.8315 14.2447 22.698C14.263 22.7257 12.911 22.3521 12.911 22.3521L12 24.5341L14.3879 25.1524C14.6546 25.2219 14.9181 25.2932 15.1788 25.3639C15.3524 25.4109 15.5248 25.4576 15.6961 25.5031L14.9367 28.6704L16.7696 29.1455L17.5217 26.0118C18.0223 26.153 18.5084 26.2833 18.984 26.406L18.2345 29.525L20.0695 30L20.8289 26.8387C23.9579 27.4538 26.3108 27.2057 27.3012 24.2659C28.0993 21.8988 27.2615 20.5334 25.6152 19.6431C26.8141 19.3559 27.7172 18.5366 27.9582 16.8444ZM23.9392 16.7903C23.4456 18.6172 20.6122 17.9185 19.3132 17.5982C19.1952 17.5691 19.0898 17.5431 19 17.5225L19.9506 14C20.0596 14.0251 20.1931 14.0524 20.3444 14.0833C21.6893 14.3584 24.4432 14.9217 23.9392 16.7903ZM18.3761 23.5553C19.9501 23.8955 23.3903 24.6391 23.9373 22.8405C24.4977 21.0014 21.1613 20.3887 19.5333 20.0897C19.3514 20.0563 19.1908 20.0268 19.0593 20L18 23.4754C18.1079 23.4973 18.2345 23.5247 18.3761 23.5553Z" fill="#F0901C"/>
</svg>
