<svg width="16" height="16" viewBox="0 0 16 16" fill="none" xmlns="http://www.w3.org/2000/svg">
<path fill-rule="evenodd" clip-rule="evenodd" d="M11.9363 4.98749C11.8709 2.21847 10.1336 0 8 0C5.86641 0 4.12909 2.21847 4.06367 4.98749C3.45486 5.08573 2.9399 5.50587 2.73852 6.09304L0.089371 13.8172C-0.278495 14.8898 0.535179 16 1.68913 16H14.3109C15.4648 16 16.2785 14.8898 15.9106 13.8172L13.2615 6.09304C13.0601 5.50587 12.5451 5.08573 11.9363 4.98749ZM5.1899 4.96552H10.8101C10.7742 3.83656 10.4094 2.85648 9.88458 2.1703C9.33176 1.44746 8.65394 1.10345 8 1.10345C7.34606 1.10345 6.66824 1.44746 6.11542 2.1703C5.59063 2.85648 5.22585 3.83656 5.1899 4.96552ZM3.80502 6.44481C3.88204 6.22024 4.09667 6.06897 4.33827 6.06897H11.6617C11.9033 6.06897 12.118 6.22024 12.195 6.44481L14.8441 14.1689C14.9667 14.5265 14.6955 14.8966 14.3109 14.8966H1.68913C1.30448 14.8966 1.03325 14.5265 1.15587 14.1689L3.80502 6.44481Z" fill="#E42396"/>
<path d="M3.55556 5.77778H12.4444L15.5556 14.6667L14.6667 15.5556H1.33333L0.888889 15.1111L0.444444 14.2222L3.55556 5.77778Z" fill="#E42396"/>
</svg>
