<svg width="20" height="20" viewBox="0 0 20 20" fill="none" xmlns="http://www.w3.org/2000/svg">
<path fill-rule="evenodd" clip-rule="evenodd" d="M14.9204 6.23436C14.8386 2.77309 12.667 0 10 0C7.33301 0 5.16137 2.77309 5.07959 6.23436C4.31857 6.35717 3.67487 6.88234 3.42314 7.6163L0.111714 17.2715C-0.348119 18.6122 0.668973 20 2.11141 20H17.8886C19.331 20 20.3481 18.6122 19.8883 17.2715L16.5769 7.6163C16.3251 6.88234 15.6814 6.35716 14.9204 6.23436ZM6.48737 6.2069H13.5126C13.4677 4.7957 13.0117 3.5706 12.3557 2.71288C11.6647 1.80932 10.8174 1.37931 10 1.37931C9.18258 1.37931 8.3353 1.80932 7.64427 2.71288C6.98829 3.5706 6.53231 4.7957 6.48737 6.2069ZM4.75627 8.05601C4.85255 7.7753 5.12083 7.58621 5.42284 7.58621H14.5772C14.8792 7.58621 15.1475 7.7753 15.2437 8.05601L18.5552 17.7112C18.7084 18.1581 18.3694 18.6207 17.8886 18.6207H2.11141C1.63059 18.6207 1.29157 18.1581 1.44484 17.7112L4.75627 8.05601Z" fill="white"/>
<path d="M4.44444 7.22222H15.5556L19.4444 18.3333L18.3333 19.4444H1.66667L1.11111 18.8889L0.555556 17.7778L4.44444 7.22222Z" fill="white"/>
</svg>
