<svg width="16" height="17" viewBox="0 0 16 17" fill="none" xmlns="http://www.w3.org/2000/svg">
<path fill-rule="evenodd" clip-rule="evenodd" d="M11.9363 5.13632C11.8709 2.35834 10.1336 0.13269 8 0.13269C5.86641 0.13269 4.12909 2.35834 4.06367 5.13632C3.45486 5.23488 2.9399 5.65638 2.73852 6.24545L0.089371 13.9946C-0.278495 15.0706 0.535179 16.1845 1.68913 16.1845H14.3109C15.4648 16.1845 16.2785 15.0706 15.9106 13.9946L13.2615 6.24545C13.0601 5.65638 12.5451 5.23488 11.9363 5.13632ZM5.1899 5.11428H10.8101C10.7742 3.98167 10.4094 2.99841 9.88458 2.31001C9.33176 1.58483 8.65394 1.23971 8 1.23971C7.34606 1.23971 6.66824 1.58483 6.11542 2.31001C5.59063 2.99841 5.22585 3.98167 5.1899 5.11428ZM3.80502 6.59835C3.88204 6.37306 4.09667 6.2213 4.33827 6.2213H11.6617C11.9033 6.2213 12.118 6.37306 12.195 6.59835L14.8441 14.3475C14.9667 14.7062 14.6955 15.0775 14.3109 15.0775H1.68913C1.30448 15.0775 1.03325 14.7062 1.15587 14.3475L3.80502 6.59835Z" fill="#F5C444"/>
<path d="M3.55556 5.92917H12.4444L15.5556 14.8468L14.6667 15.7386H1.33333L0.888889 15.2927L0.444444 14.4009L3.55556 5.92917Z" fill="#F5C444"/>
</svg>
