<svg width="20" height="23" viewBox="0 0 20 23" fill="none" xmlns="http://www.w3.org/2000/svg">
<path opacity="0.5" fill-rule="evenodd" clip-rule="evenodd" d="M17.835 4.40464C19.1742 5.18924 20 6.64008 20 8.20929V14.8514C20 16.4214 19.1742 17.8714 17.835 18.656L12.1642 21.9779C10.825 22.7625 9.17417 22.7625 7.835 21.9779L2.16417 18.656C0.825 17.8714 0 16.4214 0 14.8514V8.20929C0 6.64008 0.825 5.18924 2.16417 4.40464L7.835 1.0836C9.17417 0.298995 10.825 0.298995 12.1642 1.0836L17.835 4.40464ZM8.59417 2.59109L3.07167 5.82588C2.20167 6.33571 1.66667 7.27672 1.66667 8.29637V14.7651C1.66667 15.7839 2.20167 16.7258 3.07167 17.2356L8.59417 20.4696C9.46417 20.9794 10.535 20.9794 11.405 20.4696L16.9275 17.2356C17.7975 16.7258 18.3333 15.7839 18.3333 14.7651V8.29637C18.3333 7.27672 17.7975 6.33571 16.9275 5.82588L11.405 2.59109C10.535 2.08126 9.46417 2.08126 8.59417 2.59109ZM11.1542 4.39872L15.5117 6.95037C16.2258 7.36888 16.6667 8.14249 16.6667 8.98036V14.0845C16.6667 14.9215 16.2258 15.6951 15.5117 16.1137L11.1542 18.6662C10.44 19.0847 9.55917 19.0847 8.845 18.6662L4.4875 16.1137C3.77333 15.6951 3.33333 14.9215 3.33333 14.0845V8.98036C3.33333 8.14249 3.77333 7.36888 4.4875 6.95037L8.845 4.39872C9.55917 3.98021 10.44 3.98021 11.1542 4.39872ZM7.5 14.0684H12.5V8.99558H7.5V14.0684Z" fill="black"/>
</svg>
