<svg width="40" height="40" viewBox="0 0 40 40" fill="none" xmlns="http://www.w3.org/2000/svg">
<rect opacity="0.1" width="40" height="40" rx="20" fill="white"/>
<path fill-rule="evenodd" clip-rule="evenodd" d="M15.4167 19.1429V21.2H19.0558C18.9092 22.082 17.9558 23.7886 15.4167 23.7886C13.2258 23.7886 11.4383 22.0923 11.4383 20C11.4383 17.9086 13.2258 16.2114 15.4167 16.2114C16.6633 16.2114 17.4975 16.7086 17.9742 17.1371L19.7158 15.5686C18.5975 14.5914 17.1492 14 15.4167 14C11.8692 14 9 16.6829 9 20C9 23.3171 11.8692 26 15.4167 26C19.12 26 21.5776 23.5657 21.5776 20.1371C21.5776 19.7429 21.5308 19.4429 21.4758 19.1429H15.4167ZM15.4167 19.1429L31 20.8571H28.25V23.4286H26.4167V20.8571H23.6667V19.1429H26.4167V16.5714H28.25V19.1429H31V20.8571L15.4167 19.1429Z" fill="white"/>
</svg>
