<svg width="40" height="40" viewBox="0 0 40 40" fill="none" xmlns="http://www.w3.org/2000/svg">
<rect opacity="0.1" width="40" height="40" rx="20" fill="#CB1180"/>
<path fill-rule="evenodd" clip-rule="evenodd" d="M13.8066 20.0014C13.8066 16.0743 17.0941 12.8938 21.1069 13.0027C24.8043 13.1038 27.8947 16.1521 27.9972 19.7992C28.1076 23.7573 24.8831 27 20.9019 27C19.2542 27 17.7484 26.4479 16.5501 25.5147C16.1796 25.2348 16.1559 24.6827 16.487 24.3561C16.7708 24.0761 17.2123 24.0528 17.5277 24.2939C18.4579 25.0171 19.6326 25.4447 20.9019 25.4447C23.9765 25.4447 26.4599 22.9641 26.4205 19.9236C26.381 17.0308 23.9135 14.5968 20.9807 14.558C17.8903 14.5191 15.3833 16.9686 15.3833 20.0014H16.7945C17.1493 20.0014 17.3227 20.4213 17.0783 20.6623L14.8788 22.8397C14.7211 22.9952 14.4767 22.9952 14.319 22.8397L12.1195 20.6623C11.8672 20.4213 12.0406 20.0014 12.3954 20.0014H13.8066ZM20.1143 17.474C20.1143 17.1552 20.3823 16.8908 20.7055 16.8908C21.0288 16.8908 21.2968 17.1552 21.2968 17.4662V20.1101L23.5673 21.4399C23.8432 21.6032 23.9378 21.9609 23.7723 22.2408C23.6067 22.513 23.2441 22.6063 22.9603 22.443L20.5006 21.0044C20.264 20.8644 20.1143 20.6078 20.1143 20.3357V17.474Z" fill="#CB1180"/>
</svg>
