<svg width="17" height="22" viewBox="0 0 17 22" fill="none" xmlns="http://www.w3.org/2000/svg">
<path fill-rule="evenodd" clip-rule="evenodd" d="M14.8759 7.33333H13.8133V5.2381C13.8133 2.34667 11.4332 0 8.50049 0C5.56782 0 3.18768 2.34667 3.18768 5.2381V7.33333H2.12512C0.956305 7.33333 0 8.27619 0 9.42857V19.9048C0 21.0571 0.956305 22 2.12512 22H14.8759C16.0447 22 17.001 21.0571 17.001 19.9048V9.42857C17.001 8.27619 16.0447 7.33333 14.8759 7.33333ZM8.49926 16.7622C7.33038 16.7622 6.37402 15.8193 6.37402 14.6669C6.37402 13.5145 7.33038 12.5716 8.49926 12.5716C9.66814 12.5716 10.6245 13.5145 10.6245 14.6669C10.6245 15.8193 9.66814 16.7622 8.49926 16.7622ZM5.3125 5.23818V7.33353H11.6882V5.23818C11.6882 3.49904 10.2643 2.09516 8.50035 2.09516C6.73641 2.09516 5.3125 3.49904 5.3125 5.23818Z" fill="#808080"/>
</svg>
