<svg width="20" height="18" viewBox="0 0 20 18" fill="none" xmlns="http://www.w3.org/2000/svg">
<path opacity="0.4" d="M19.9996 5.05278V12.9472C20.0043 14.2841 19.4766 15.568 18.5329 16.5158C17.5891 17.4637 16.3068 17.9976 14.9686 18H5.05767C3.71711 18.0023 2.43065 17.472 1.4819 16.5258C0.533142 15.5796 -2.07759e-06 14.2953 0 12.9561V5.05278C0.000730046 4.46466 0.106069 3.88134 0.311105 3.33004C1.03357 1.33226 2.93145 0.000767554 5.05767 7.95159e-07H14.9419C17.0941 -0.00120131 19.0104 1.36068 19.7152 3.3922C19.9107 3.92373 20.0071 4.48655 19.9996 5.05278Z" fill="#808080"/>
<path d="M19.7156 3.40108L19.6178 3.481C17.7778 4.9107 11.8224 9.69708 11.8224 9.69708C10.7868 10.5384 9.30249 10.5384 8.26692 9.69708C8.26692 9.69708 2.34704 4.91958 0.507075 3.48988L0.311523 3.33892C1.03102 1.33764 2.92958 0.00211652 5.05809 0H14.9423C17.0968 0.000105848 19.0138 1.36605 19.7156 3.40108Z" fill="#808080"/>
</svg>
