<svg width="18" height="22" viewBox="0 0 18 22" fill="none" xmlns="http://www.w3.org/2000/svg">
<path fill-rule="evenodd" clip-rule="evenodd" d="M3.55468 0H7.26658H7.61101H11.3022C13.7896 0 16.6819 1.89635 15.8192 6.06666C15.0585 9.75023 12.2156 11.9167 8.81501 11.9167L7.00441 11.9166L7.00424 11.9167H6.60047C6.11304 11.9167 5.79013 12.3351 5.71393 12.8328L4.73386 19.25L0.894725 19.25C0.408181 19.25 -0.0680469 18.8313 0.00805007 18.3333L2.66804 0.916686C2.74407 0.418637 3.06701 0 3.55468 0ZM5.71383 12.8334L5.71393 12.8328L5.71383 12.8334ZM17.5031 6.67904C17.9669 7.53318 18.1518 8.65811 17.8592 10.0723C17.171 13.405 14.5989 15.3651 11.522 15.3651L10.7892 15.3626L10.7891 15.3627L10.3483 15.3651C9.9073 15.3675 9.69068 15.7412 9.6217 16.1916L9.57458 16.5L8.87428 21.0855C8.80081 21.5621 8.49772 21.9679 8.04263 21.9981L5.24277 22C4.8026 22.0003 4.37173 21.6212 4.44054 21.1707L4.45388 21.0834H6.24916L7.1929 14.9038L7.21857 14.9076L7.37853 13.7499L8.81487 13.75C13.0907 13.7503 16.5193 10.9644 17.5031 6.67904ZM9.62164 16.1921L9.6217 16.1916L9.62164 16.1921Z" fill="#808080"/>
</svg>
