<svg width="40" height="40" viewBox="0 0 40 40" fill="none" xmlns="http://www.w3.org/2000/svg">
<rect opacity="0.1" width="40" height="40" rx="20" fill="#0F9CD8"/>
<path fill-rule="evenodd" clip-rule="evenodd" d="M15.1597 10H18.4592H18.7653H22.0464C24.2574 10 26.8284 11.6378 26.0615 15.2394C25.3853 18.4207 22.8583 20.2917 19.8356 20.2917L18.2261 20.2916L18.226 20.2917H17.8671C17.4338 20.2917 17.1468 20.653 17.079 21.0829L16.2079 26.625L12.7953 26.625C12.3628 26.625 11.9395 26.2634 12.0072 25.8333L14.3716 10.7917C14.4392 10.3616 14.7262 10 15.1597 10ZM17.079 21.0834L17.079 21.0829L17.079 21.0834ZM27.5583 15.7683C27.9706 16.5059 28.1349 17.4775 27.8748 18.6988C27.2631 21.577 24.9768 23.2699 22.2418 23.2699L21.5904 23.2677L21.5903 23.2678L21.1985 23.2699C20.8065 23.2719 20.6139 23.5947 20.5526 23.9836L20.5107 24.25L19.8883 28.2102C19.8229 28.6218 19.5535 28.9723 19.149 28.9984L16.6602 29C16.269 29.0002 15.886 28.6729 15.9471 28.2838L15.959 28.2084H17.5548L18.3937 22.8714L18.4165 22.8747L18.5587 21.8749L19.8354 21.875C23.6362 21.8753 26.6838 19.4693 27.5583 15.7683ZM20.5526 23.9841L20.5526 23.9836L20.5526 23.9841Z" fill="#179BD7"/>
</svg>
