<svg width="16" height="19" viewBox="0 0 16 19" fill="none" xmlns="http://www.w3.org/2000/svg">
<path fill-rule="evenodd" clip-rule="evenodd" d="M3.15972 0H6.45918H6.76534H10.0464C12.2574 0 14.8284 1.63775 14.0615 5.23939C13.3853 8.42065 10.8583 10.2917 7.83556 10.2917L6.22614 10.2916L6.22599 10.2917H5.86708C5.43381 10.2917 5.14678 10.653 5.07905 11.0829L4.20788 16.625L0.795311 16.625C0.362827 16.625 -0.0604861 16.2634 0.00715562 15.8333L2.37159 0.791683C2.43917 0.36155 2.72623 0 3.15972 0ZM5.07896 11.0834L5.07905 11.0829L5.07896 11.0834ZM15.5583 5.76826C15.9706 6.50593 16.1349 7.47746 15.8748 8.69878C15.2631 11.577 12.9768 13.2699 10.2418 13.2699L9.59044 13.2677L9.59034 13.2678L9.19851 13.2699C8.80649 13.2719 8.61394 13.5947 8.55263 13.9836L8.51074 14.25L7.88825 18.2102C7.82294 18.6218 7.55353 18.9723 7.14901 18.9984L4.66024 19C4.26898 19.0002 3.88598 18.6729 3.94714 18.2838L3.95901 18.2084H5.55481L6.39369 12.8714L6.41651 12.8747L6.55869 11.8749L7.83544 11.875C11.6362 11.8753 14.6838 9.46928 15.5583 5.76826ZM8.55257 13.9841L8.55263 13.9836L8.55257 13.9841Z" fill="#179BD7"/>
</svg>
