<svg width="40" height="40" viewBox="0 0 40 40" fill="none" xmlns="http://www.w3.org/2000/svg">
<rect opacity="0.1" width="40" height="40" rx="20" fill="white"/>
<path d="M26.6409 21.4167H21.499V26.514C21.499 27.3347 20.8279 28 20 28C19.1721 28 18.501 27.3347 18.501 26.514V21.4167H13.3591C12.5868 21.3374 12 20.6923 12 19.9226C12 19.153 12.5868 18.5079 13.3591 18.4286H18.4848V13.3473C18.5648 12.5818 19.2156 12 19.9919 12C20.7683 12 21.4191 12.5818 21.499 13.3473V18.4286H26.6409C27.4132 18.5079 28 19.153 28 19.9226C28 20.6923 27.4132 21.3374 26.6409 21.4167Z" fill="white"/>
</svg>
