<svg width="16" height="16" viewBox="0 0 16 16" fill="none" xmlns="http://www.w3.org/2000/svg">
<path opacity="0.4" d="M8.00006 8.88889C10.4854 8.88889 12.5001 6.89904 12.5001 4.44444C12.5001 1.98985 10.4854 0 8.00006 0C5.51475 0 3.5 1.98985 3.5 4.44444C3.5 6.89904 5.51475 8.88889 8.00006 8.88889Z" fill="#562CB0"/>
<path d="M15.192 13.3406C15.1961 13.2774 15.1961 13.214 15.192 13.1507C15.1742 12.9169 15.1079 12.6886 14.9967 12.4785C14.5592 11.6237 13.3328 11.2365 12.3095 11.0174C11.5794 10.8654 10.8375 10.7676 10.091 10.7251L9.30978 10.6667H8.95826H8.5208H7.47404H7.03658H6.68506L5.90389 10.7251C5.15729 10.7676 4.41547 10.8654 3.68536 11.0174C2.66203 11.2073 1.4356 11.6018 0.998142 12.4785C0.886991 12.6886 0.820658 12.9169 0.802849 13.1507C0.79879 13.214 0.79879 13.2774 0.802849 13.3406C0.799101 13.4039 0.799101 13.4673 0.802849 13.5306C0.824097 13.7624 0.893064 13.9881 1.00595 14.1954C1.44341 15.0502 2.66984 15.4374 3.69318 15.6566C4.42464 15.8015 5.1659 15.8991 5.9117 15.9489L6.69287 16H6.88035H7.04439H8.96607H9.13012H9.3176L10.0988 15.9489C10.8446 15.8991 11.5858 15.8015 12.3173 15.6566C13.3406 15.4594 14.5671 15.0722 15.0045 14.1954C15.1121 13.9816 15.1783 13.7515 15.1998 13.516C15.2008 13.4574 15.1982 13.3989 15.192 13.3406Z" fill="#562CB0"/>
</svg>
