<svg width="20" height="23" viewBox="0 0 20 23" fill="none" xmlns="http://www.w3.org/2000/svg">
<path opacity="0.4" d="M10.0001 12.7693C13.4519 12.7693 16.2502 9.99669 16.2502 6.5765C16.2502 3.1563 13.4519 0.38369 10.0001 0.38369C6.54826 0.38369 3.75 3.1563 3.75 6.5765C3.75 9.99669 6.54826 12.7693 10.0001 12.7693Z" fill="#808080"/>
<path d="M19.9891 18.9723C19.9948 18.8841 19.9948 18.7958 19.9891 18.7076C19.9644 18.3819 19.8723 18.0638 19.7179 17.7711C19.1103 16.58 17.4069 16.0405 15.9856 15.7351C14.9716 15.5233 13.9413 15.3871 12.9044 15.3279L11.8194 15.2464H11.3312H10.7236H9.26975H8.66218H8.17395L7.08899 15.3279C6.05206 15.3871 5.02175 15.5233 4.00772 15.7351C2.58642 15.9997 0.883043 16.5495 0.275468 17.7711C0.121092 18.0638 0.0289634 18.3819 0.00422863 18.7076C-0.00140954 18.7958 -0.00140954 18.8841 0.00422863 18.9723C-0.000976993 19.0604 -0.000976993 19.1488 0.00422863 19.237C0.0337395 19.5599 0.129527 19.8745 0.286317 20.1633C0.893893 21.3544 2.59727 21.8939 4.01857 22.1993C5.03449 22.4012 6.06401 22.5373 7.09984 22.6065L8.1848 22.6778H8.44519H8.67303H11.342H11.5699H11.8303L12.9152 22.6065C13.951 22.5373 14.9806 22.4012 15.9965 22.1993C17.4178 21.9245 19.1212 21.3849 19.7287 20.1633C19.8782 19.8653 19.9701 19.5448 20 19.2166C20.0013 19.135 19.9977 19.0535 19.9891 18.9723Z" fill="#808080"/>
</svg>
