<svg width="18" height="20" viewBox="0 0 18 20" fill="none" xmlns="http://www.w3.org/2000/svg">
<path opacity="0.4" d="M9.00008 11.1111C12.1067 11.1111 14.6252 8.6238 14.6252 5.55556C14.6252 2.48731 12.1067 0 9.00008 0C5.89343 0 3.375 2.48731 3.375 5.55556C3.375 8.6238 5.89343 11.1111 9.00008 11.1111Z" fill="white"/>
<path d="M17.9902 16.6758C17.9953 16.5967 17.9953 16.5174 17.9902 16.4384C17.968 16.1461 17.8851 15.8607 17.7461 15.5982C17.1993 14.5297 15.6663 14.0457 14.3871 13.7717C13.4745 13.5817 12.5472 13.4595 11.6139 13.4064L10.6375 13.3333H10.1981H9.65125H8.34279H7.79597H7.35656L6.3801 13.4064C5.44686 13.4595 4.51958 13.5817 3.60695 13.7717C2.32779 14.0091 0.79474 14.5023 0.247921 15.5982C0.108983 15.8607 0.0260671 16.1461 0.00380577 16.4384C-0.00126859 16.5174 -0.00126859 16.5967 0.00380577 16.6758C-0.000879295 16.7549 -0.000879295 16.8341 0.00380577 16.9132C0.0303656 17.203 0.116575 17.4852 0.257686 17.7443C0.804505 18.8128 2.33755 19.2968 3.61672 19.5708C4.53105 19.7519 5.45762 19.8739 6.38987 19.9361L7.36633 20H7.60068H7.80574H10.2078H10.4129H10.6472L11.6237 19.9361C12.556 19.8739 13.4825 19.7519 14.3969 19.5708C15.676 19.3242 17.2091 18.8402 17.7559 17.7443C17.8904 17.4769 17.9731 17.1894 18 16.895C18.0012 16.8218 17.998 16.7486 17.9902 16.6758Z" fill="white"/>
</svg>
