<svg width="16" height="16" viewBox="0 0 16 16" fill="none" xmlns="http://www.w3.org/2000/svg">
<path d="M6.87945 13.8453C10.6789 13.8453 13.7589 10.746 13.7589 6.92267C13.7589 3.09938 10.6789 0 6.87945 0C3.08003 0 0 3.09938 0 6.92267C0 10.746 3.08003 13.8453 6.87945 13.8453Z" fill="#808080"/>
<path opacity="0.4" d="M14.9398 15.9644C14.6726 15.9557 14.4185 15.8458 14.2284 15.6565L12.5993 13.7523C12.25 13.4329 12.2214 12.89 12.5352 12.5353C12.6821 12.3866 12.8818 12.303 13.0901 12.303C13.2985 12.303 13.4982 12.3866 13.6451 12.5353L15.694 14.1746C15.9891 14.4767 16.0802 14.9252 15.9265 15.3195C15.7728 15.7139 15.403 15.9805 14.9825 16.0002L14.9398 15.9644Z" fill="#808080"/>
</svg>
