<svg width="12" height="22" viewBox="0 0 12 22" fill="none" xmlns="http://www.w3.org/2000/svg">
<path d="M6.36 9.65556C3.636 8.93444 2.76 8.18889 2.76 7.02778C2.76 5.69556 3.972 4.76667 6 4.76667C7.704 4.76667 8.556 5.42667 8.868 6.47778C9.012 6.96667 9.408 7.33333 9.912 7.33333H10.272C11.064 7.33333 11.628 6.53889 11.352 5.78111C10.848 4.33889 9.672 3.14111 7.8 2.67667V1.83333C7.8 0.818889 6.996 0 6 0C5.004 0 4.2 0.818889 4.2 1.83333V2.64C1.872 3.15333 0 4.69333 0 7.05222C0 9.87556 2.292 11.2811 5.64 12.1C8.64 12.8333 9.24 13.9089 9.24 15.0456C9.24 15.8889 8.652 17.2333 6 17.2333C4.02 17.2333 3 16.5122 2.604 15.4856C2.424 15.0089 2.016 14.6667 1.524 14.6667H1.188C0.384 14.6667 -0.18 15.4978 0.12 16.2556C0.804 17.9544 2.4 18.9567 4.2 19.3478V20.1667C4.2 21.1811 5.004 22 6 22C6.996 22 7.8 21.1811 7.8 20.1667V19.3722C10.14 18.92 12 17.5389 12 15.0333C12 11.5622 9.084 10.3767 6.36 9.65556Z" fill="#808080"/>
</svg>
